<?xml version="1.0" encoding="utf-8"?>
<!-- Generator: Adobe Illustrator 15.1.0, SVG Export Plug-In . SVG Version: 6.00 Build 0)  -->
<!DOCTYPE svg PUBLIC "-//W3C//DTD SVG 1.1//EN" "http://www.w3.org/Graphics/SVG/1.1/DTD/svg11.dtd">
<svg version="1.1" id="Layer_1" xmlns="http://www.w3.org/2000/svg" xmlns:xlink="http://www.w3.org/1999/xlink" x="0px" y="0px"
	 width="437px" height="125px" viewBox="0 0 437 125" enable-background="new 0 0 437 125" xml:space="preserve">
<g>
	<path fill="#FFFFFF" d="M154.24,11.162h2.4v22.5h-2.4V11.162z"/>
	<path fill="#FFFFFF" d="M158.441,11.162l12.87,15.75v-15.75h2.4v22.5l-0.06-0.06l-12.81-15.721v15.78h-2.4V11.162z"/>
	<path fill="#FFFFFF" d="M185.59,21.212h12.45v1.199c0,1.44-0.275,2.851-0.825,4.23c-0.55,1.381-1.375,2.62-2.475,3.721
		c-1.1,1.119-2.34,1.949-3.72,2.489c-1.38,0.54-2.79,0.81-4.23,0.81c-1.44,0-2.85-0.27-4.23-0.81c-1.38-0.54-2.621-1.37-3.72-2.489
		c-1.1-1.101-1.925-2.34-2.475-3.721c-0.55-1.381-0.825-2.79-0.825-4.23c0-1.439,0.274-2.849,0.825-4.229
		c0.55-1.38,1.375-2.619,2.475-3.72c1.1-1.1,2.34-1.925,3.72-2.475c1.38-0.55,2.79-0.825,4.23-0.825c1.44,0,2.85,0.275,4.23,0.825
		c1.38,0.55,2.62,1.375,3.72,2.475l-1.68,1.681c-0.88-0.86-1.86-1.505-2.94-1.936c-1.08-0.43-2.19-0.645-3.33-0.645
		c-1.14,0-2.255,0.215-3.345,0.645c-1.09,0.431-2.065,1.075-2.925,1.936c-0.86,0.88-1.505,1.859-1.935,2.939
		c-0.43,1.079-0.645,2.19-0.645,3.329c0,1.141,0.215,2.256,0.645,3.346c0.43,1.091,1.075,2.064,1.935,2.925
		c0.88,0.882,1.86,1.53,2.94,1.95s2.19,0.63,3.33,0.63c1.14,0,2.25-0.21,3.33-0.63c1.08-0.42,2.06-1.068,2.94-1.95
		c0.7-0.698,1.26-1.483,1.68-2.354c0.42-0.869,0.69-1.773,0.81-2.715h-9.96V21.212L185.59,21.212z"/>
	<path fill="#FFFFFF" d="M199.839,11.162h12.45v2.4h-10.05v7.649h7.65v2.399h-7.65v7.649h10.05v2.399h-12.45V11.162z"/>
	<path fill="#FFFFFF" d="M227.138,18.152c0,0.779-0.119,1.525-0.359,2.234c-0.239,0.711-0.58,1.355-1.02,1.936
		c-0.439,0.582-0.955,1.086-1.545,1.516c-0.59,0.431-1.246,0.755-1.965,0.977l4.709,8.85h-2.699l-4.561-8.551h-3.211v8.551h-2.399
		v-22.5h6.06c0.961,0,1.864,0.186,2.715,0.555c0.852,0.371,1.592,0.87,2.221,1.5c0.631,0.63,1.131,1.37,1.5,2.221
		C226.955,16.287,227.138,17.192,227.138,18.152z M216.489,22.712h3.66c0.619,0,1.209-0.12,1.771-0.359
		c0.56-0.24,1.049-0.564,1.469-0.976c0.421-0.409,0.75-0.89,0.99-1.438c0.24-0.551,0.36-1.146,0.36-1.786
		c0-0.62-0.12-1.21-0.36-1.771c-0.24-0.56-0.569-1.05-0.99-1.47c-0.42-0.42-0.909-0.75-1.469-0.99
		c-0.562-0.24-1.149-0.359-1.771-0.359h-3.66V22.712z"/>
	<path fill="#FFFFFF" d="M230.214,20.761c-0.49-0.659-0.84-1.374-1.051-2.145c-0.209-0.77-0.266-1.561-0.164-2.37
		c0.1-0.809,0.359-1.585,0.779-2.325c0.438-0.739,0.99-1.359,1.649-1.859c0.66-0.5,1.369-0.855,2.13-1.065
		c0.76-0.21,1.551-0.265,2.37-0.165c0.82,0.101,1.601,0.36,2.341,0.78l1.739,1.02v2.73l-2.91-1.681
		c-0.461-0.259-0.944-0.42-1.454-0.479c-0.511-0.06-1-0.024-1.472,0.104c-0.469,0.131-0.91,0.346-1.319,0.646
		c-0.41,0.3-0.744,0.68-1.005,1.14c-0.26,0.461-0.42,0.945-0.479,1.455c-0.062,0.51-0.029,1.001,0.09,1.471
		c0.121,0.47,0.336,0.904,0.646,1.305c0.31,0.401,0.693,0.73,1.154,0.991l3.629,2.1c0.74,0.439,1.354,0.99,1.846,1.65
		c0.49,0.658,0.84,1.369,1.051,2.129c0.21,0.76,0.265,1.551,0.164,2.371c-0.102,0.819-0.358,1.6-0.778,2.34
		c-0.44,0.739-0.99,1.359-1.649,1.858c-0.66,0.501-1.371,0.854-2.132,1.065c-0.76,0.209-1.549,0.265-2.368,0.164
		c-0.82-0.101-1.601-0.359-2.341-0.779l-1.739-0.99v-2.79l2.909,1.681c0.46,0.28,0.945,0.451,1.455,0.511
		c0.511,0.06,1,0.024,1.47-0.104c0.471-0.13,0.905-0.346,1.307-0.646c0.398-0.3,0.738-0.681,1.02-1.14
		c0.26-0.48,0.42-0.971,0.48-1.472c0.059-0.499,0.029-0.983-0.092-1.455c-0.119-0.469-0.334-0.903-0.646-1.305
		c-0.312-0.399-0.694-0.729-1.153-0.99l-3.632-2.101C231.319,21.972,230.705,21.422,230.214,20.761z"/>
	<path fill="#FFFFFF" d="M241.81,22.411c0-1.56,0.295-3.02,0.885-4.379c0.588-1.36,1.396-2.55,2.414-3.57
		c1.02-1.02,2.209-1.824,3.57-2.415c1.359-0.59,2.82-0.885,4.379-0.885c1.562,0,3.021,0.295,4.381,0.885
		c1.359,0.591,2.551,1.396,3.57,2.415c1.02,1.021,1.824,2.21,2.414,3.57s0.887,2.82,0.887,4.379c0,1.561-0.297,3.021-0.887,4.381
		s-1.395,2.55-2.414,3.57c-1.021,1.02-2.211,1.824-3.57,2.414c-1.358,0.59-2.819,0.885-4.381,0.885c-1.559,0-3.02-0.295-4.379-0.885
		s-2.551-1.396-3.57-2.414c-1.02-1.021-1.826-2.211-2.414-3.57C242.104,25.432,241.81,23.971,241.81,22.411z M244.209,22.411
		c0,1.221,0.229,2.371,0.69,3.451c0.459,1.08,1.09,2.021,1.89,2.818c0.801,0.801,1.739,1.432,2.819,1.891
		c1.08,0.461,2.229,0.689,3.451,0.689c1.219,0,2.369-0.229,3.449-0.689c1.08-0.459,2.02-1.09,2.82-1.891
		c0.799-0.799,1.43-1.738,1.889-2.818c0.461-1.08,0.691-2.23,0.691-3.451c0-1.219-0.23-2.369-0.691-3.449
		c-0.459-1.08-1.09-2.02-1.889-2.819c-0.801-0.8-1.74-1.43-2.82-1.891c-1.08-0.46-2.23-0.689-3.449-0.689
		c-1.221,0-2.371,0.229-3.451,0.689c-1.08,0.461-2.021,1.091-2.819,1.891c-0.8,0.8-1.431,1.739-1.89,2.819
		C244.438,20.042,244.209,21.192,244.209,22.411z"/>
	<path fill="#FFFFFF" d="M266.108,11.162h2.4v20.1h9.6v2.399h-12V11.162z"/>
	<path fill="#FFFFFF" d="M279.907,11.162h2.4v20.1h9.6v2.399h-12V11.162z"/>
</g>
<path fill="none" stroke="#FFFFFF" stroke-width="3" stroke-miterlimit="10" d="M137.408,23.942h-115.5c0,0,6.333,4.86,1.749,10.809
	c-3.055,3.964-14.749,2.408-14.749,2.408v66.105c0,0,6.667-5.188,11.894,1.596c4.485,5.816,3.106,11.604,3.106,11.604h388.5
	c0,0,0.014-10.525,3.395-12.307c5.773-3.037,11.605,1.367,11.605,1.367V39.438c0,0-8.832,2.734-12.605-3.039
	c-3.422-5.235,3.605-12.457,3.605-12.457H301.407"/>
<g>
	<g>
		<g>
			<path fill="none" stroke="#FFFFFF" stroke-miterlimit="10" d="M58.036,48.075h27v4.802h-11.1v40.198h-4.8V52.877h-11.1V48.075z"
				/>
			<path fill="none" stroke="#FFFFFF" stroke-miterlimit="10" d="M110.837,72.977h-17.4v20.101h-4.801v-45h4.801v20.101h17.4V48.075
				h4.799v45h-4.799V72.977z"/>
			<path fill="none" stroke="#FFFFFF" stroke-miterlimit="10" d="M145.336,62.057c0,1.562-0.239,3.052-0.72,4.472
				s-1.16,2.709-2.04,3.869c-0.88,1.159-1.911,2.17-3.091,3.028c-1.18,0.86-2.489,1.513-3.93,1.95l9.42,17.699h-5.399l-9.12-17.101
				h-6.42v17.101h-4.801v-45h12.121c1.92,0,3.729,0.369,5.43,1.109c1.699,0.74,3.18,1.739,4.438,3c1.26,1.26,2.26,2.74,3,4.439
				C144.966,58.327,145.336,60.136,145.336,62.057z M124.036,71.176h7.32c1.238,0,2.42-0.237,3.539-0.72
				c1.12-0.479,2.101-1.131,2.94-1.95c0.841-0.817,1.5-1.779,1.979-2.88c0.48-1.102,0.721-2.289,0.721-3.569
				c0-1.239-0.24-2.42-0.721-3.54c-0.479-1.119-1.139-2.101-1.979-2.939c-0.84-0.84-1.82-1.5-2.94-1.979
				c-1.119-0.479-2.301-0.72-3.539-0.72h-7.32V71.176z"/>
			<path fill="none" stroke="#FFFFFF" stroke-miterlimit="10" d="M148.936,48.075h24.9v4.802h-20.101v15.3h15.301v4.803h-15.301
				v15.299h20.101v4.801h-24.9V48.075z"/>
			<path fill="none" stroke="#FFFFFF" stroke-miterlimit="10" d="M177.435,48.075h24.9v4.802h-20.1v15.3h15.3v4.803h-15.3v15.299
				h20.1v4.801h-24.9V48.075z"/>
			<path fill="none" stroke="#FFFFFF" stroke-miterlimit="10" d="M236.571,49.33h24.898v4.8h-20.1v15.3h15.299v4.802H241.37v20.101
				h-4.801L236.571,49.33L236.571,49.33z"/>
			<path fill="none" stroke="#FFFFFF" stroke-miterlimit="10" d="M282.146,49.33h4.799v45h-4.799V49.33z"/>
			<path fill="none" stroke="#FFFFFF" stroke-miterlimit="10" d="M328.675,81.549l13.141-32.222h5.222l-18.361,45.002l-18.299-45
				h5.16L328.675,81.549z"/>
			<path fill="none" stroke="#FFFFFF" stroke-miterlimit="10" d="M360.804,49.33h24.9v4.8h-20.102v15.3h15.301v4.802h-15.301v15.301
				h20.102v4.8h-24.9V49.33z"/>
		</g>
	</g>
	<circle fill="#FFFFFF" cx="216.716" cy="73.528" r="5.5"/>
</g>
</svg>
