<?xml version="1.0" encoding="utf-8"?>
<!-- Generator: Adobe Illustrator 15.1.0, SVG Export Plug-In . SVG Version: 6.00 Build 0)  -->
<!DOCTYPE svg PUBLIC "-//W3C//DTD SVG 1.1//EN" "http://www.w3.org/Graphics/SVG/1.1/DTD/svg11.dtd">
<svg version="1.1" id="Layer_1" xmlns="http://www.w3.org/2000/svg" xmlns:xlink="http://www.w3.org/1999/xlink" x="0px" y="0px"
	 width="445.278px" height="175.83px" viewBox="0 0 445.278 175.83" enable-background="new 0 0 445.278 175.83"
	 xml:space="preserve">
<g>
	<path fill="#FFFFFF" d="M160.11,54.571h2.4v22.5h-2.4V54.571z"/>
	<path fill="#FFFFFF" d="M164.311,54.571l12.87,15.75v-15.75h2.4v22.5l-0.06-0.06l-12.81-15.721v15.78h-2.4V54.571z"/>
	<path fill="#FFFFFF" d="M191.46,64.621h12.45v1.2c0,1.44-0.275,2.85-0.825,4.23c-0.55,1.38-1.375,2.62-2.475,3.72
		c-1.1,1.12-2.34,1.95-3.72,2.49c-1.38,0.54-2.79,0.81-4.23,0.81s-2.85-0.27-4.23-0.81c-1.38-0.54-2.621-1.37-3.72-2.49
		c-1.1-1.1-1.925-2.34-2.475-3.72c-0.55-1.381-0.825-2.79-0.825-4.23s0.274-2.85,0.825-4.23c0.55-1.38,1.375-2.619,2.475-3.72
		c1.1-1.1,2.34-1.925,3.72-2.475c1.38-0.55,2.79-0.825,4.23-0.825s2.85,0.275,4.23,0.825c1.38,0.55,2.62,1.375,3.72,2.475
		l-1.68,1.681c-0.88-0.86-1.86-1.505-2.94-1.936c-1.08-0.43-2.19-0.645-3.33-0.645c-1.14,0-2.255,0.215-3.345,0.645
		c-1.09,0.431-2.065,1.075-2.925,1.936c-0.86,0.88-1.505,1.859-1.935,2.939c-0.43,1.08-0.645,2.19-0.645,3.33
		s0.215,2.255,0.645,3.345c0.43,1.091,1.075,2.065,1.935,2.925c0.88,0.881,1.86,1.53,2.94,1.95s2.19,0.63,3.33,0.63
		c1.14,0,2.25-0.21,3.33-0.63c1.08-0.42,2.06-1.069,2.94-1.95c0.7-0.699,1.26-1.484,1.68-2.354s0.69-1.774,0.81-2.715h-9.96V64.621z
		"/>
	<path fill="#FFFFFF" d="M205.709,54.571h12.45v2.4h-10.05v7.649h7.65v2.4h-7.65v7.649h10.05v2.4h-12.45V54.571z"/>
	<path fill="#FFFFFF" d="M233.009,61.561c0,0.779-0.12,1.525-0.36,2.234c-0.24,0.711-0.58,1.355-1.02,1.936
		s-0.955,1.085-1.545,1.515c-0.59,0.431-1.245,0.755-1.965,0.976l4.71,8.85h-2.7l-4.56-8.55h-3.21v8.55h-2.4v-22.5h6.06
		c0.96,0,1.865,0.186,2.715,0.555c0.85,0.371,1.59,0.87,2.22,1.5s1.13,1.37,1.5,2.221C232.824,59.696,233.009,60.601,233.009,61.561
		z M222.359,66.121h3.66c0.62,0,1.21-0.12,1.77-0.359c0.56-0.24,1.05-0.565,1.47-0.976c0.42-0.409,0.75-0.89,0.99-1.439
		c0.24-0.55,0.36-1.146,0.36-1.785c0-0.62-0.12-1.21-0.36-1.771c-0.24-0.56-0.57-1.05-0.99-1.47c-0.42-0.42-0.911-0.75-1.47-0.99
		c-0.56-0.24-1.15-0.359-1.77-0.359h-3.66V66.121z"/>
	<path fill="#FFFFFF" d="M236.084,64.17c-0.49-0.659-0.84-1.374-1.05-2.145c-0.21-0.77-0.265-1.561-0.165-2.37
		s0.36-1.585,0.78-2.325c0.439-0.739,0.99-1.359,1.65-1.859c0.66-0.5,1.37-0.855,2.13-1.065c0.76-0.21,1.55-0.265,2.37-0.165
		c0.82,0.101,1.6,0.36,2.34,0.78l1.74,1.02v2.73l-2.91-1.681c-0.46-0.259-0.945-0.42-1.455-0.479c-0.51-0.06-1-0.024-1.47,0.104
		c-0.47,0.131-0.91,0.346-1.32,0.646c-0.41,0.3-0.745,0.68-1.005,1.14c-0.26,0.461-0.42,0.945-0.48,1.455s-0.03,1.001,0.09,1.471
		s0.335,0.904,0.645,1.305s0.695,0.73,1.155,0.99l3.63,2.1c0.74,0.44,1.354,0.99,1.845,1.65c0.49,0.659,0.84,1.37,1.05,2.13
		s0.265,1.55,0.165,2.37c-0.101,0.82-0.36,1.6-0.78,2.34c-0.44,0.74-0.99,1.36-1.65,1.859c-0.66,0.501-1.37,0.855-2.13,1.065
		c-0.76,0.21-1.55,0.265-2.37,0.165c-0.82-0.101-1.6-0.36-2.34-0.78l-1.74-0.99v-2.79l2.91,1.681c0.46,0.28,0.945,0.45,1.455,0.51
		c0.51,0.06,1,0.025,1.47-0.104c0.47-0.13,0.905-0.346,1.305-0.646c0.4-0.3,0.74-0.68,1.02-1.14c0.26-0.48,0.42-0.97,0.48-1.471
		c0.06-0.499,0.03-0.984-0.09-1.455c-0.12-0.469-0.335-0.904-0.645-1.305c-0.311-0.399-0.695-0.729-1.155-0.99l-3.63-2.1
		C237.189,65.381,236.574,64.831,236.084,64.17z"/>
	<path fill="#FFFFFF" d="M247.679,65.821c0-1.56,0.295-3.02,0.885-4.38c0.589-1.36,1.395-2.55,2.415-3.57
		c1.02-1.02,2.209-1.824,3.57-2.415c1.36-0.59,2.82-0.885,4.38-0.885s3.02,0.295,4.38,0.885c1.36,0.591,2.55,1.396,3.57,2.415
		c1.02,1.021,1.825,2.21,2.415,3.57c0.589,1.36,0.885,2.82,0.885,4.38s-0.295,3.021-0.885,4.38c-0.59,1.36-1.395,2.55-2.415,3.57
		c-1.02,1.02-2.21,1.825-3.57,2.415s-2.82,0.885-4.38,0.885s-3.02-0.295-4.38-0.885c-1.36-0.59-2.55-1.396-3.57-2.415
		c-1.02-1.021-1.826-2.21-2.415-3.57C247.974,68.841,247.679,67.38,247.679,65.821z M250.079,65.821c0,1.22,0.23,2.37,0.69,3.45
		c0.459,1.08,1.09,2.021,1.89,2.819c0.8,0.801,1.74,1.431,2.82,1.891c1.08,0.46,2.229,0.689,3.45,0.689
		c1.22,0,2.37-0.229,3.45-0.689s2.02-1.09,2.82-1.891c0.8-0.799,1.43-1.739,1.89-2.819c0.46-1.08,0.69-2.23,0.69-3.45
		s-0.23-2.37-0.69-3.45c-0.46-1.08-1.09-2.02-1.89-2.819c-0.8-0.8-1.74-1.43-2.82-1.891c-1.08-0.46-2.23-0.689-3.45-0.689
		c-1.22,0-2.37,0.229-3.45,0.689c-1.08,0.461-2.021,1.091-2.82,1.891s-1.43,1.739-1.89,2.819
		C250.309,63.451,250.079,64.601,250.079,65.821z"/>
	<path fill="#FFFFFF" d="M271.979,54.571h2.4v20.1h9.6v2.4h-12V54.571z"/>
	<path fill="#FFFFFF" d="M285.778,54.571h2.4v20.1h9.6v2.4h-12V54.571z"/>
</g>
<path fill="none" stroke="#FFFFFF" stroke-width="3" stroke-miterlimit="10" d="M143.278,67.351h-115.5
	c0,0,6.333,4.861,1.749,10.809c-3.055,3.964-14.749,2.409-14.749,2.409v66.105c0,0,6.667-5.186,11.894,1.594
	c4.485,5.818,3.106,11.604,3.106,11.604h388.5c0,0,0.013-10.525,3.395-12.306c5.772-3.038,11.605,1.367,11.605,1.367V82.847
	c0,0-8.833,2.735-12.605-3.038c-3.422-5.236,3.605-12.458,3.605-12.458h-117"/>
<g>
	<g>
		<g>
			<path fill="none" stroke="#FFFFFF" stroke-miterlimit="10" d="M63.906,91.486h27v4.8h-11.1v40.2h-4.8v-40.2H63.906V91.486z"/>
			<path fill="none" stroke="#FFFFFF" stroke-miterlimit="10" d="M116.707,116.386h-17.4v20.1h-4.801v-45h4.801v20.1h17.4v-20.1
				h4.799v45h-4.799V116.386z"/>
			<path fill="none" stroke="#FFFFFF" stroke-miterlimit="10" d="M151.206,105.466c0,1.56-0.239,3.05-0.72,4.47
				s-1.16,2.71-2.04,3.87s-1.911,2.17-3.091,3.029c-1.18,0.861-2.489,1.511-3.93,1.95l9.42,17.7h-5.399l-9.12-17.1h-6.42v17.1
				h-4.801v-45h12.121c1.92,0,3.729,0.37,5.43,1.11c1.699,0.74,3.18,1.739,4.439,3c1.26,1.26,2.26,2.74,3,4.439
				C150.836,101.737,151.206,103.545,151.206,105.466z M129.906,114.585h7.32c1.238,0,2.42-0.239,3.539-0.72
				c1.12-0.479,2.101-1.13,2.94-1.95c0.841-0.819,1.5-1.779,1.979-2.88c0.48-1.1,0.721-2.289,0.721-3.569
				c0-1.24-0.24-2.42-0.721-3.54c-0.479-1.12-1.139-2.101-1.979-2.94c-0.84-0.84-1.82-1.5-2.94-1.98
				c-1.119-0.479-2.301-0.72-3.539-0.72h-7.32V114.585z"/>
			<path fill="none" stroke="#FFFFFF" stroke-miterlimit="10" d="M154.806,91.486h24.9v4.8h-20.101v15.3h15.301v4.801h-15.301v15.3
				h20.101v4.8h-24.9V91.486z"/>
			<path fill="none" stroke="#FFFFFF" stroke-miterlimit="10" d="M183.305,91.486h24.9v4.8h-20.1v15.3h15.3v4.801h-15.3v15.3h20.1
				v4.8h-24.9V91.486z"/>
			<path fill="none" stroke="#FFFFFF" stroke-miterlimit="10" d="M242.441,92.739h24.9v4.8h-20.1v15.3h15.299v4.801h-15.299v20.1
				h-4.801V92.739z"/>
			<path fill="none" stroke="#FFFFFF" stroke-miterlimit="10" d="M288.015,92.739h4.8v45h-4.8V92.739z"/>
			<path fill="none" stroke="#FFFFFF" stroke-miterlimit="10" d="M334.545,124.958l13.141-32.22h5.22l-18.36,45l-18.3-45h5.16
				L334.545,124.958z"/>
			<path fill="none" stroke="#FFFFFF" stroke-miterlimit="10" d="M366.674,92.739h24.9v4.8h-20.1v15.3h15.3v4.801h-15.3v15.3h20.1
				v4.8h-24.9V92.739z"/>
		</g>
	</g>
	<circle fill="#FFFFFF" cx="222.586" cy="116.937" r="5.5"/>
</g>
</svg>
